<?xml version="1.0" encoding="utf-8"?>
<!-- Generator: Adobe Illustrator 21.1.0, SVG Export Plug-In . SVG Version: 6.00 Build 0)  -->
<svg version="1.1" id="Layer_1" xmlns="http://www.w3.org/2000/svg" xmlns:xlink="http://www.w3.org/1999/xlink" x="0px" y="0px"
	 viewBox="0 0 1920 1080" style="enable-background:new 0 0 1920 1080;" xml:space="preserve">
<g>
	<path d="M560.2,415.6c2.1,0,4.1,0,6.3,0c0,0.4,0.1,0.9,0.1,1.3c0,4.4,0,8.8,0,13.2c0,1.2,0.5,1.9,1.6,2.1c3.3,0.8,6.6,0.8,9.8,0
		c1.1-0.3,1.5-0.9,1.5-2.1c-0.1-4.4,0-8.8,0-13.2c0-0.4,0-0.8,0-1.4c0.6,0,1,0,1.5,0c8.8,0,17.6,0,26.4,0c3,0,5.3,1.6,6.1,4.4
		c1.2,4.4,1.2,8.9,0,13.3c-0.7,2.5-2.5,4.7-6.3,4.7c-5.6-0.1-11.2,0-16.8,0c-1.1,0-1.4-0.3-1.4-1.4c0.1-4,0.1-7.9,0-11.9
		c0-0.9,0.3-1.2,1.2-1.2c1.3,0.1,2.6,0,4,0c0.8,0,1.1,0.2,1.1,1.1c0,2.2,0,4.5,0,6.7c0,0.8,0.2,1.1,1,1.1c3.2,0,6.4,0,9.6,0
		c1,0,1.5-0.5,1.7-1.3c0.7-2.8,0.7-5.6,0.1-8.4c-0.2-1-0.8-1.4-1.9-1.4c-6.2,0-12.5,0-18.7,0c-1,0-1.2,0.3-1.2,1.2
		c0.1,2.9-0.1,5.8,0,8.6c0.2,3.8-1.6,5.4-4.8,6.3c-5.4,1.6-10.8,1.5-16.2,0c-2.4-0.7-4.5-2.6-4.5-5.9c0.1-4.9,0-9.8,0-14.8
		C560.2,416.4,560.2,416.1,560.2,415.6z"/>
	<path d="M631,415.6c2.5,0,5,0,7.6,0c0.9,0,1.3,0.2,1.2,1.2c-0.1,1-0.1,2.1,0,3.1c0.1,1-0.3,1.3-1.3,1.3c-4.2,0-8.3,0-12.5,0
		c-1.2,0-1.8,0.4-2.1,1.5c-0.6,2.7-0.6,5.5,0,8.2c0.2,1.1,0.9,1.6,2.1,1.5c4.1-0.1,8.2,0,12.2,0c1.6,0,1.6,0,1.6,1.6c0,1,0,2,0,3
		c0,0.7-0.3,1-1,1c-5.2,0-10.3,0.1-15.5,0c-2.3,0-3.9-1.4-4.8-3.4c-0.5-1.3-1-2.6-1.1-4c-0.4-3.5-0.5-7,0.6-10.4c1-3,3-4.4,6.1-4.4
		C626.4,415.6,628.7,415.6,631,415.6z"/>
</g>
</svg>
